<mxfile host="Electron" modified="2024-06-16T19:14:25.240Z" agent="Mozilla/5.0 (Macintosh; Intel Mac OS X 10_15_7) AppleWebKit/537.36 (KHTML, like Gecko) draw.io/24.2.5 Chrome/120.0.6099.109 Electron/28.1.0 Safari/537.36" etag="VwS6iMmpKFlMMaRd8RDy" version="24.2.5" type="device">
  <diagram name="Page-1" id="nX-MmhoRqRkp76G-GfbK">
    <mxGraphModel dx="1140" dy="729" grid="1" gridSize="10" guides="1" tooltips="1" connect="1" arrows="1" fold="1" page="1" pageScale="1" pageWidth="827" pageHeight="1169" math="0" shadow="0">
      <root>
        <mxCell id="0" />
        <mxCell id="1" parent="0" />
        <mxCell id="oCV9-cCz4sGWvRRylWd9-4" style="edgeStyle=orthogonalEdgeStyle;rounded=0;orthogonalLoop=1;jettySize=auto;html=1;entryX=0;entryY=0.5;entryDx=0;entryDy=0;" edge="1" parent="1" source="oCV9-cCz4sGWvRRylWd9-1" target="oCV9-cCz4sGWvRRylWd9-3">
          <mxGeometry relative="1" as="geometry" />
        </mxCell>
        <mxCell id="oCV9-cCz4sGWvRRylWd9-1" value="" style="html=1;dashed=0;aspect=fixed;verticalLabelPosition=bottom;verticalAlign=top;align=center;shape=mxgraph.gmdl.voice;strokeColor=#000000;fillColor=#000000;shadow=0;strokeWidth=2;sketch=0;" vertex="1" parent="1">
          <mxGeometry x="50" y="55" width="54" height="90" as="geometry" />
        </mxCell>
        <mxCell id="oCV9-cCz4sGWvRRylWd9-2" value="Голосовая дорожка" style="text;html=1;align=left;verticalAlign=middle;whiteSpace=wrap;rounded=0;" vertex="1" parent="1">
          <mxGeometry x="50" y="10" width="60" height="30" as="geometry" />
        </mxCell>
        <mxCell id="oCV9-cCz4sGWvRRylWd9-6" value="" style="edgeStyle=orthogonalEdgeStyle;rounded=0;orthogonalLoop=1;jettySize=auto;html=1;entryX=0;entryY=0.5;entryDx=0;entryDy=0;" edge="1" parent="1" source="oCV9-cCz4sGWvRRylWd9-3" target="oCV9-cCz4sGWvRRylWd9-7">
          <mxGeometry relative="1" as="geometry">
            <mxPoint x="400" y="100" as="targetPoint" />
          </mxGeometry>
        </mxCell>
        <mxCell id="oCV9-cCz4sGWvRRylWd9-3" value="Whisper AI" style="rounded=0;whiteSpace=wrap;html=1;fillColor=#f5f5f5;fontColor=#333333;strokeColor=#666666;" vertex="1" parent="1">
          <mxGeometry x="200" y="70" width="120" height="60" as="geometry" />
        </mxCell>
        <mxCell id="oCV9-cCz4sGWvRRylWd9-10" value="" style="edgeStyle=orthogonalEdgeStyle;rounded=0;orthogonalLoop=1;jettySize=auto;html=1;entryX=0;entryY=0.5;entryDx=0;entryDy=0;" edge="1" parent="1" source="oCV9-cCz4sGWvRRylWd9-7" target="oCV9-cCz4sGWvRRylWd9-11">
          <mxGeometry relative="1" as="geometry">
            <mxPoint x="563" y="100" as="targetPoint" />
          </mxGeometry>
        </mxCell>
        <mxCell id="oCV9-cCz4sGWvRRylWd9-7" value="Большое Текстовое описание" style="text;html=1;align=center;verticalAlign=middle;whiteSpace=wrap;rounded=0;" vertex="1" parent="1">
          <mxGeometry x="400" y="85" width="120" height="30" as="geometry" />
        </mxCell>
        <mxCell id="oCV9-cCz4sGWvRRylWd9-13" value="" style="edgeStyle=orthogonalEdgeStyle;rounded=0;orthogonalLoop=1;jettySize=auto;html=1;entryX=0;entryY=0.5;entryDx=0;entryDy=0;" edge="1" parent="1" source="oCV9-cCz4sGWvRRylWd9-11" target="oCV9-cCz4sGWvRRylWd9-14">
          <mxGeometry relative="1" as="geometry">
            <mxPoint x="760" y="100" as="targetPoint" />
          </mxGeometry>
        </mxCell>
        <mxCell id="oCV9-cCz4sGWvRRylWd9-11" value="Суммаризация и аггрегация слов&lt;div&gt;(TextExtract)&lt;/div&gt;" style="rounded=0;whiteSpace=wrap;html=1;" vertex="1" parent="1">
          <mxGeometry x="580" y="70" width="120" height="60" as="geometry" />
        </mxCell>
        <mxCell id="oCV9-cCz4sGWvRRylWd9-29" style="edgeStyle=orthogonalEdgeStyle;rounded=0;orthogonalLoop=1;jettySize=auto;html=1;entryX=0.5;entryY=0;entryDx=0;entryDy=0;" edge="1" parent="1" source="oCV9-cCz4sGWvRRylWd9-14" target="oCV9-cCz4sGWvRRylWd9-24">
          <mxGeometry relative="1" as="geometry" />
        </mxCell>
        <mxCell id="oCV9-cCz4sGWvRRylWd9-14" value="Текстовое описание" style="text;html=1;align=center;verticalAlign=middle;whiteSpace=wrap;rounded=0;" vertex="1" parent="1">
          <mxGeometry x="760" y="85" width="120" height="30" as="geometry" />
        </mxCell>
        <mxCell id="oCV9-cCz4sGWvRRylWd9-15" value="&lt;font style=&quot;font-size: 26px;&quot;&gt;1&lt;/font&gt;" style="ellipse;whiteSpace=wrap;html=1;aspect=fixed;" vertex="1" parent="1">
          <mxGeometry x="140" y="70" width="25" height="25" as="geometry" />
        </mxCell>
        <mxCell id="oCV9-cCz4sGWvRRylWd9-16" value="&lt;font style=&quot;font-size: 26px;&quot;&gt;2&lt;/font&gt;" style="ellipse;whiteSpace=wrap;html=1;aspect=fixed;" vertex="1" parent="1">
          <mxGeometry x="350" y="70" width="25" height="25" as="geometry" />
        </mxCell>
        <mxCell id="oCV9-cCz4sGWvRRylWd9-17" value="&lt;font style=&quot;font-size: 26px;&quot;&gt;3&lt;/font&gt;" style="ellipse;whiteSpace=wrap;html=1;aspect=fixed;" vertex="1" parent="1">
          <mxGeometry x="530" y="70" width="25" height="25" as="geometry" />
        </mxCell>
        <mxCell id="oCV9-cCz4sGWvRRylWd9-18" value="&lt;font style=&quot;font-size: 26px;&quot;&gt;4&lt;/font&gt;" style="ellipse;whiteSpace=wrap;html=1;aspect=fixed;" vertex="1" parent="1">
          <mxGeometry x="730" y="70" width="25" height="25" as="geometry" />
        </mxCell>
        <mxCell id="oCV9-cCz4sGWvRRylWd9-31" style="edgeStyle=orthogonalEdgeStyle;rounded=0;orthogonalLoop=1;jettySize=auto;html=1;entryX=1;entryY=0.5;entryDx=0;entryDy=0;" edge="1" parent="1" source="oCV9-cCz4sGWvRRylWd9-24" target="oCV9-cCz4sGWvRRylWd9-26">
          <mxGeometry relative="1" as="geometry" />
        </mxCell>
        <mxCell id="oCV9-cCz4sGWvRRylWd9-24" value="LaBSE" style="rounded=0;whiteSpace=wrap;html=1;fillColor=#f5f5f5;fontColor=#333333;strokeColor=#666666;" vertex="1" parent="1">
          <mxGeometry x="780" y="217.5" width="80" height="60" as="geometry" />
        </mxCell>
        <mxCell id="oCV9-cCz4sGWvRRylWd9-25" value="" style="group" vertex="1" connectable="0" parent="1">
          <mxGeometry x="580" y="175" width="83" height="110" as="geometry" />
        </mxCell>
        <mxCell id="oCV9-cCz4sGWvRRylWd9-26" value="&lt;b&gt;1 0 5 4 32 6&amp;nbsp;&lt;/b&gt;&lt;div&gt;&lt;b&gt;3 1 7 8 48 3&amp;nbsp;&lt;/b&gt;&lt;/div&gt;&lt;div&gt;&lt;b&gt;5 6 3 0 32 1&amp;nbsp;&lt;/b&gt;&lt;/div&gt;&lt;div&gt;&lt;b&gt;6 4 7 1 43 7&amp;nbsp;&lt;br&gt;&lt;/b&gt;&lt;/div&gt;&lt;div&gt;&lt;b&gt;...&lt;/b&gt;&lt;/div&gt;" style="text;html=1;align=center;verticalAlign=middle;whiteSpace=wrap;rounded=0;" vertex="1" parent="oCV9-cCz4sGWvRRylWd9-25">
          <mxGeometry y="35" width="83" height="75" as="geometry" />
        </mxCell>
        <mxCell id="oCV9-cCz4sGWvRRylWd9-27" value="&lt;b&gt;Текстовые эмбеддинги&lt;/b&gt;" style="text;html=1;align=center;verticalAlign=middle;whiteSpace=wrap;rounded=0;" vertex="1" parent="oCV9-cCz4sGWvRRylWd9-25">
          <mxGeometry width="83" height="30" as="geometry" />
        </mxCell>
        <mxCell id="oCV9-cCz4sGWvRRylWd9-28" value="&lt;font style=&quot;font-size: 26px;&quot;&gt;5&lt;/font&gt;" style="ellipse;whiteSpace=wrap;html=1;aspect=fixed;" vertex="1" parent="1">
          <mxGeometry x="755" y="180" width="25" height="25" as="geometry" />
        </mxCell>
      </root>
    </mxGraphModel>
  </diagram>
</mxfile>
